<?xml version="1.0"?>
<svg xmlns="http://www.w3.org/2000/svg" xmlns:xlink="http://www.w3.org/1999/xlink" version="1.1" id="Capa_1" x="0px" y="0px" viewBox="0 0 461.386 461.386" style="enable-background:new 0 0 461.386 461.386;" xml:space="preserve" width="512px" height="512px" class=""><g><g>
	<g>
		<path d="M397.341,131.545V0H65.931v130.285L15.192,161.32v300.066h431.001V161.312L397.341,131.545z     M65.931,192.85L36.92,167.091l29.011-17.745V192.85z M172.805,309.504L31.449,435.155V183.966L172.805,309.504z M230.697,279.802    l185.998,165.327H44.699L230.697,279.802z M288.191,309.154l141.746-125.253v251.254L288.191,309.154z M397.341,150.582    l27.084,16.501l-27.084,23.939V150.582z M82.188,16.257h298.896v119.856v69.272l-105.135,92.893l-45.252-40.228l-45.65,40.578    L82.188,207.287v-72.45V16.257z" data-original="#010002" class="active-path" data-old_color="#010002" fill="#FFFFFF"/>
		<rect x="103.981" y="43.35" width="253.018" height="16.257" data-original="#010002" class="active-path" data-old_color="#010002" fill="#FFFFFF"/>
		<rect x="103.981" y="75.864" width="253.018" height="16.257" data-original="#010002" class="active-path" data-old_color="#010002" fill="#FFFFFF"/>
		<rect x="103.981" y="108.378" width="253.018" height="16.257" data-original="#010002" class="active-path" data-old_color="#010002" fill="#FFFFFF"/>
		<rect x="103.981" y="140.893" width="253.018" height="16.257" data-original="#010002" class="active-path" data-old_color="#010002" fill="#FFFFFF"/>
		<rect x="103.981" y="173.407" width="253.018" height="16.257" data-original="#010002" class="active-path" data-old_color="#010002" fill="#FFFFFF"/>
	</g>
</g></g> </svg>
