<svg id="SvgjsSvg1001" width="288" height="288" xmlns="http://www.w3.org/2000/svg" version="1.1" xmlns:xlink="http://www.w3.org/1999/xlink" xmlns:svgjs="http://svgjs.com/svgjs"><defs id="SvgjsDefs1002"></defs><g id="SvgjsG1008" transform="matrix(0.9167,0,0,0.9167,11.995199364471432,11.995199364471432)"><!--?xml version="1.0" encoding="UTF-8"?--><svg xmlns="http://www.w3.org/2000/svg" viewBox="0 0 50 50" width="288" height="288"><path d="M6 4c-1.1 0-2 .9-2 2v38c0 1.1.9 2 2 2h38c1.1 0 2-.9 2-2V6c0-1.1-.9-2-2-2H6zm12.58 10c1.99 0 3.68.48 4.81 1.57 1.02 1.02 1.56 2.59 1.56 4.48 0 1.98-.48 3.32-1.31 4.41-1.15 1.6-3.17 2.4-5.09 2.4-.41 0-.73 0-1.09-.03V36H15V14.42c.99-.26 2.14-.42 3.58-.42zm.4 1.64c-.58 0-1.06.06-1.38.16v8.61c.29.03.58.06.99.06 2.4 0 4.03-1.6 4.03-4.64 0-2.21-.89-4.19-3.64-4.19zM31.71 20c1.27 0 2.19.39 2.86.8l-.67 1.87c-.63-.42-1.29-.71-2.15-.71-1.36 0-2.06.96-2.06 1.99s.4 1.64 1.99 2.67c1.86 1.16 3.32 2.6 3.32 4.75 0 3.12-2.19 4.63-4.85 4.63-1.16 0-2.45-.35-3.15-.9l.63-1.86c.57.35 1.56.8 2.59.8 1.43 0 2.36-.87 2.36-2.25 0-1.19-.43-2.02-2.06-3.05-2.09-1.32-3.22-2.67-3.22-4.43 0-2.54 1.92-4.31 4.41-4.31z" fill="#959b9e" class="color000 svgShape"></path><metadata><rdf:rdf xmlns:rdf="http://www.w3.org/1999/02/22-rdf-syntax-ns#" xmlns:rdfs="http://www.w3.org/2000/01/rdf-schema#" xmlns:dc="http://purl.org/dc/elements/1.1/"><rdf:description about="https://iconscout.com/legal#licenses" dc:title="adobe,photoshop,filled" dc:description="adobe,photoshop,filled" dc:publisher="Iconscout" dc:date="2017-12-09" dc:format="image/svg+xml" dc:language="en"><dc:creator><rdf:bag><rdf:li>Icons8</rdf:li></rdf:bag></dc:creator></rdf:description></rdf:rdf></metadata></svg></g></svg>