<svg enable-background="new 0 0 461.386 461.386" height="512" viewBox="0 0 461.386 461.386" width="512" xmlns="http://www.w3.org/2000/svg"><g fill="#fff"><path d="m397.341 131.545v-131.545h-331.41v130.285l-50.739 31.035v300.066h431.001v-300.074zm-331.41 61.305-29.011-25.759 29.011-17.745zm106.874 116.654-141.356 125.651v-251.189zm57.892-29.702 185.998 165.327h-371.996zm57.494 29.352 141.746-125.253v251.254zm109.15-158.572 27.084 16.501-27.084 23.939zm-315.153-134.325h298.896v119.856 69.272l-105.135 92.893-45.252-40.228-45.65 40.578-102.859-91.341v-72.45z"/><path d="m103.981 43.35h253.018v16.257h-253.018z"/><path d="m103.981 75.864h253.018v16.257h-253.018z"/><path d="m103.981 108.378h253.018v16.257h-253.018z"/><path d="m103.981 140.893h253.018v16.257h-253.018z"/><path d="m103.981 173.407h253.018v16.257h-253.018z"/></g></svg>